# File generated by ImageToStl.com - Free Image and 3D model conversion tools

mtllib 00_podtorze.mtl

o obj1
v 920.2756 19.68504 -67.91339
v 920.2756 0 87.59843
v 920.2756 0 -87.59843
v 920.2756 19.68504 67.91339
v -920.2756 19.68504 -67.91339
v 920.2756 19.68504 67.91339
v 920.2756 19.68504 -67.91339
v -920.2756 19.68504 67.91339
v -920.2756 19.68504 67.91339
v 920.2756 0 87.59843
v 920.2756 19.68504 67.91339
v -920.2756 0 87.59843
v 920.2756 0 87.59843
v -920.2756 -0 -87.59843
v 920.2756 0 -87.59843
v -920.2756 0 87.59843
v -920.2756 19.68504 -67.91339
v 920.2756 0 -87.59843
v -920.2756 -0 -87.59843
v 920.2756 19.68504 -67.91339
v -920.2756 0 87.59843
v -920.2756 19.68504 -67.91339
v -920.2756 -0 -87.59843
v -920.2756 19.68504 67.91339
vn 1 0 0
vn -0 1 -0
vn -0 0.70711 0.70711
vn 0 -1 0
vn -0 0.70711 -0.70711
vn -1 0 0
vt 0.4101 -1.41486
vt 0 1.82497
vt 0 -1.82497
vt 0.4101 1.41486
vt 19.17241 -1.41486
vt -19.17241 1.41486
vt -19.17241 -1.41486
vt 19.17241 1.41486
vt 19.17241 0.71047
vt -19.17241 1.29045
vt -19.17241 0.71047
vt 19.17241 1.29045
vt 19.17241 1.82497
vt -19.17241 -1.82497
vt 19.17241 -1.82497
vt -19.17241 1.82497
vt 19.17241 -0.71047
vt -19.17241 -1.29045
vt 19.17241 -1.29045
vt -19.17241 -0.71047
vt -0 1.82497
vt -0.4101 -1.41486
vt 0 -1.82497
vt -0.4101 1.41486
usemtl mat0
f 1/1/1 2/2/1 3/3/1
f 2/2/1 1/1/1 4/4/1
f 5/5/2 6/6/2 7/7/2
f 6/6/2 5/5/2 8/8/2
f 9/9/3 10/10/3 11/11/3
f 10/10/3 9/9/3 12/12/3
f 13/13/4 14/14/4 15/15/4
f 14/14/4 13/13/4 16/16/4
f 17/17/5 18/18/5 19/19/5
f 18/18/5 17/17/5 20/20/5
f 21/21/6 22/22/6 23/23/6
f 22/22/6 21/21/6 24/24/6
# Vertices: 24, normals: 6, texture coordinates: 24, faces: 12

