# File generated by ImageToStl.com - Free Image and 3D model conversion tools

mtllib Podtorze.mtl

o obj1
v -0 19.68504 19.68504
v 0 175.1969 0
v 0 0 0
v -0 155.5118 19.68504
v 1840.551 19.68504 19.68504
v -0 155.5118 19.68504
v -0 19.68504 19.68504
v 1840.551 155.5118 19.68504
v -0 155.5118 19.68504
v 1840.551 175.1969 0
v 0 175.1969 0
v 1840.551 155.5118 19.68504
v 1840.551 175.1969 0
v 0 175.1969 0
v 1840.551 0 0
v 1840.551 0 0
v -0 19.68504 19.68504
v 1840.551 19.68504 19.68504
v 1840.551 175.1969 0
v 1840.551 19.68504 19.68504
v 1840.551 0 0
v 1840.551 155.5118 19.68504
vn -1 -0 -0
vn 1 0 0
vn -0 0 1
vn 0 -0 -1
vn -0 0.70711 0.70711
vn 0 -0.70711 -0.70711
vn -0 -0.70711 0.70711
vn 0 0.70711 -0.70711
vt -0.82021 0.82021
vt -7.29987 0
vt 0 0
vt -6.47966 0.82021
vt 76.68963 0.82021
vt 0 6.47966
vt 0 0.82021
vt 76.68963 6.47966
vt -0 -4.00184
vt -76.68963 -5.16179
vt -0 -5.16179
vt -76.68963 -4.00184
vt -76.68963 7.29987
vt 0 7.29987
vt -76.68963 0
vt 76.68963 0
vt -0 1.15995
vt 76.68963 1.15995
vt 7.29987 -0
vt 0.82021 0.82021
vt 0 -0
vt 6.47966 0.82021
usemtl mat0
f 1/1/1 2/2/1 3/3/1
f 2/2/1 1/1/1 4/4/1
f 4/4/2 1/1/2 2/2/2
f 3/3/2 2/2/2 1/1/2
f 5/5/3 6/6/3 7/7/3
f 6/6/3 5/5/3 8/8/3
f 8/8/4 5/5/4 6/6/4
f 7/7/4 6/6/4 5/5/4
f 9/9/5 10/10/5 11/11/5
f 10/10/5 9/9/5 12/12/5
f 12/12/6 9/9/6 10/10/6
f 11/11/6 10/10/6 9/9/6
f 13/13/4 3/3/4 14/14/4
f 3/3/4 13/13/4 15/15/4
f 15/15/3 13/13/3 3/3/3
f 14/14/3 3/3/3 13/13/3
f 16/16/7 17/17/7 3/3/7
f 17/17/7 16/16/7 18/18/7
f 18/18/8 16/16/8 17/17/8
f 3/3/8 17/17/8 16/16/8
f 19/19/2 20/20/2 21/21/2
f 20/20/2 19/19/2 22/22/2
f 22/22/1 19/19/1 20/20/1
f 21/21/1 20/20/1 19/19/1
# Vertices: 22, normals: 8, texture coordinates: 22, faces: 24

