# File generated by ImageToStl.com - Free Image and 3D model conversion tools

mtllib kostka_1000_1000_1000.mtl

o obj1
v -19.68504 19.68504 -19.68504
v -6.61196 -4.409449 -19.68504
v -19.68504 -19.68504 -19.68504
v 19.68504 19.68504 -19.68504
v 6.53654 -4.409449 -19.68504
v 6.53654 -19.68504 -19.68504
v 19.68504 -19.68504 -19.68504
v -6.61196 -19.68504 -19.68504
v -19.68504 19.68504 19.68504
v 19.68504 19.68504 19.68504
v 19.68504 -19.68504 19.68504
v 6.53654 -19.68504 19.68504
v 6.53654 -4.409449 19.68504
v -6.61196 -4.409449 19.68504
v -6.61196 -19.68504 19.68504
v -19.68504 -19.68504 19.68504
vn 0 0 -1
vn -0 1 -0
vn 1 -0 -0
vn 0 -1 0
vn -1 -0 0
vn -0 -0 1
usemtl mat0
f 1//1 2//1 3//1
f 2//1 1//1 4//1
f 2//1 4//1 5//1
f 5//1 4//1 6//1
f 6//1 4//1 7//1
f 8//1 3//1 2//1
f 9//2 4//2 1//2
f 4//2 9//2 10//2
f 4//3 11//3 7//3
f 11//3 4//3 10//3
f 11//4 6//4 7//4
f 6//4 11//4 12//4
f 13//5 6//5 12//5
f 6//5 13//5 5//5
f 13//4 2//4 5//4
f 2//4 13//4 14//4
f 2//3 15//3 8//3
f 15//3 2//3 14//3
f 15//4 3//4 8//4
f 3//4 15//4 16//4
f 9//5 3//5 16//5
f 3//5 9//5 1//5
f 11//6 13//6 12//6
f 15//6 9//6 16//6
f 9//6 15//6 14//6
f 9//6 14//6 10//6
f 10//6 14//6 13//6
f 10//6 13//6 11//6
# Vertices: 16, normals: 6, texture coordinates: 0, faces: 28

